C:\Users\Nicos\Documents\OpenSimProjects\SprintingProject\Study1\PredictiveResults\IC_pred_Sprinting_optimum_26-October-2023__22-16-26_p02_maxVel_01___HTD_Plus_4_GRF.mot
version=1
nRows=117
nColumns=10
inDegrees=yes
endheader
time	ground_force_vx	ground_force_vy	ground_force_vz	ground_force_px	ground_force_py	ground_force_pz	ground_torque_x	ground_torque_y	ground_torque_z
0.056000	-99.999025	39.524735	3.426508	0.383436	0.000000	0.404175	-15.974904	-41.730746	15.155221
0.056648	-120.271198	47.919387	3.439114	0.387125	0.000000	0.404085	-19.363497	-49.930760	18.550806
0.058696	-183.198749	75.698705	0.466407	0.398773	0.000000	0.403970	-30.579997	-74.190188	30.186566
0.060180	-227.785542	97.602957	-4.652861	0.406896	0.000000	0.404171	-39.448275	-90.162199	39.714290
0.060829	-247.571697	108.164885	-7.793207	0.410269	0.000000	0.404352	-43.736696	-96.894260	44.376753
0.062877	-314.347946	147.322983	-20.038786	0.419860	0.000000	0.405255	-59.703357	-118.919841	61.855084
0.064361	-375.811957	187.129562	-29.640015	0.424952	0.000000	0.406580	-76.083063	-140.056093	79.521025
0.065009	-411.812374	211.515219	-34.130284	0.426389	0.000000	0.407528	-86.198282	-153.060685	90.187693
0.067057	-570.919540	327.155401	-50.629798	0.427471	0.000000	0.410410	-134.267705	-212.037713	139.849548
0.068541	-725.259518	458.084292	-67.076211	0.425857	0.000000	0.411886	-188.678544	-268.912079	195.078476
0.069189	-800.792747	534.468479	-75.805168	0.424704	0.000000	0.412519	-220.478313	-296.500560	226.990773
0.071237	-1014.170161	812.497127	-118.372133	0.418978	0.000000	0.414172	-336.513724	-366.301470	340.418747
0.072722	-1102.590174	1053.394180	-141.720900	0.411748	0.000000	0.414959	-437.115340	-390.558292	433.733232
0.073370	-1125.339727	1186.656403	-148.853467	0.406454	0.000000	0.415293	-492.810197	-394.364603	482.321456
0.075418	-1055.570115	1700.351955	-153.377306	0.392690	0.000000	0.416309	-707.871149	-350.067468	667.711623
0.076902	-860.460885	2104.596690	-111.395713	0.386331	0.000000	0.416918	-877.443593	-271.314074	813.071286
0.077550	-750.606029	2276.718437	-80.018278	0.384120	0.000000	0.417168	-949.774194	-231.618931	874.533428
0.079598	-380.316323	2762.418698	2.363944	0.378462	0.000000	0.417687	-1153.825250	-97.488768	1045.471239
0.081083	-185.920789	3065.840470	24.798632	0.375505	0.000000	0.417797	-1280.899812	-24.484684	1151.239101
0.081731	-154.983667	3192.566592	11.130377	0.374529	0.000000	0.417767	-1333.749475	-7.998763	1195.709815
0.083779	-34.898504	3549.091355	-144.543726	0.372852	0.000000	0.417161	-1480.542195	78.115868	1323.284260
0.085263	34.889488	3758.158803	-158.333455	0.372695	0.000000	0.417171	-1567.795929	112.752853	1400.647755
0.085911	68.561655	3835.972753	-167.729915	0.372891	0.000000	0.417163	-1600.225194	130.014207	1430.400522
0.087959	166.463916	4012.854080	-174.152929	0.374254	0.000000	0.417266	-1674.427751	174.015713	1501.826146
0.089444	227.979040	4083.333031	-173.029218	0.375684	0.000000	0.417358	-1704.213673	199.539912	1534.041882
0.090092	264.344117	4096.788291	-172.389047	0.376403	0.000000	0.417396	-1709.983214	214.658331	1542.041659
0.092140	341.762690	4091.035595	-167.672494	0.379339	0.000000	0.417532	-1708.138486	245.402447	1551.890017
0.093624	390.954708	4038.174418	-163.145849	0.382097	0.000000	0.417628	-1686.452700	264.118595	1542.972848
0.094272	409.886384	4001.853857	-159.672652	0.383441	0.000000	0.417671	-1671.460071	270.625114	1534.475432
0.096320	466.666512	3840.984711	-144.588582	0.388315	0.000000	0.417840	-1604.918844	288.224644	1491.510569
0.097804	501.613341	3687.772111	-128.357723	0.392483	0.000000	0.418008	-1541.518145	296.629346	1447.387346
0.098453	523.286171	3612.826058	-119.580779	0.394515	0.000000	0.418095	-1510.505152	302.094253	1425.313050
0.100501	580.662666	3344.692340	-108.828255	0.401607	0.000000	0.418167	-1398.639555	316.949037	1343.252327
0.101985	573.415130	3135.794687	-93.877949	0.407337	0.000000	0.418320	-1311.764572	307.628872	1277.325023
0.102633	590.919488	3043.564840	-87.275174	0.410139	0.000000	0.418381	-1273.370667	310.562350	1248.283309
0.104681	597.296950	2750.491094	-73.135113	0.419443	0.000000	0.418562	-1151.250701	303.065395	1153.673046
0.106165	593.955838	2543.356874	-66.835907	0.426716	0.000000	0.418689	-1064.874694	294.412093	1085.290818
0.106813	590.951634	2456.065352	-66.989106	0.429957	0.000000	0.418740	-1028.452887	291.025368	1056.002837
0.108861	587.295763	2201.958483	-59.114667	0.439442	0.000000	0.418892	-922.382152	280.663977	967.633303
0.110346	590.404204	2052.388194	-46.102391	0.444175	0.000000	0.418945	-859.838055	275.174379	911.620347
0.110994	591.454854	1992.259227	-42.141453	0.446029	0.000000	0.419018	-834.792474	273.302711	888.606166
0.113042	601.661624	1790.120439	-23.068115	0.451945	0.000000	0.419291	-750.581203	268.919587	809.036285
0.114526	605.176944	1638.135308	-7.742907	0.456515	0.000000	0.419549	-687.277212	263.495172	747.832861
0.115174	606.418029	1574.515786	-1.942027	0.458720	0.000000	0.419710	-660.839730	260.707958	722.262660
0.117222	591.513029	1371.730456	13.783342	0.465381	0.000000	0.420072	-576.225562	247.112530	638.377310
0.118707	572.517155	1241.602008	24.082563	0.469656	0.000000	0.420329	-521.880859	234.030319	583.125642
0.119355	564.740269	1187.151764	29.497733	0.471562	0.000000	0.420464	-499.154605	228.051030	559.815367
0.121403	532.497441	1023.722056	35.829548	0.477401	0.000000	0.420978	-430.964463	209.747004	488.725766
0.122887	515.817346	913.258028	40.249032	0.480349	0.000000	0.421233	-384.694722	199.415677	438.682465
0.123535	503.644201	867.972763	44.355259	0.481275	0.000000	0.421314	-365.688876	191.942715	417.733577
0.125583	457.464186	739.070690	53.906150	0.482709	0.000000	0.421046	-311.182470	167.058061	356.755748
0.127067	421.001223	648.344660	59.664278	0.483150	0.000000	0.420702	-272.759585	148.489484	313.247922
0.127716	404.657458	609.648845	62.183597	0.483177	0.000000	0.420556	-256.391379	140.255604	294.568227
0.129764	353.734369	499.012341	69.410811	0.481704	0.000000	0.420316	-209.743100	115.263564	240.376055
0.131248	312.142996	420.252070	71.603925	0.479704	0.000000	0.420144	-176.566389	96.799878	201.596633
0.131896	290.692264	385.169704	67.654272	0.478630	0.000000	0.419903	-161.734012	89.682579	184.353729
0.133944	213.602317	272.917383	63.778464	0.474628	0.000000	0.419427	-114.468977	59.319604	129.534258
0.135428	151.832651	192.745643	61.719864	0.471237	0.000000	0.419018	-80.763851	34.535879	90.828939
0.136077	125.313386	159.210166	58.973302	0.469670	0.000000	0.418699	-66.661091	24.770554	74.776263
0.138125	49.169869	66.794581	34.183689	0.464413	0.000000	0.416370	-27.811284	4.597534	31.020257
0.139609	12.726990	19.459542	12.129631	0.460856	0.000000	0.413461	-8.045765	-0.327899	8.968049
0.140257	4.544517	7.509415	5.104895	0.459518	0.000000	0.411815	-3.092486	-0.474294	3.450713
0.142305	0.095823	0.280384	0.227401	0.457341	0.000000	0.405067	-0.113574	-0.065185	0.128231
0.143789	0.000464	0.006541	0.005505	0.458956	0.000000	0.399441	-0.002613	-0.002341	0.003002
0.144437	-0.000061	0.001031	0.000858	0.460743	0.000000	0.397076	-0.000409	-0.000419	0.000475
0.146485	-0.000001	0.000002	0.000001	0.470733	0.000000	0.391655	-0.000001	-0.000001	0.000001
0.147970	-0.000000	0.000000	0.000000	0.481721	0.000000	0.390641	-0.000000	-0.000000	0.000000
0.148618	-0.000000	0.000000	0.000000	0.487256	0.000000	0.390883	-0.000000	-0.000000	0.000000
0.150666	-0.000000	0.000000	0.000000	0.508566	0.000000	0.393785	-0.000000	-0.000000	0.000000
0.152150	-0.000000	0.000000	0.000000	NaN	0.000000	NaN	0.000000	0.000000	0.000000
0.152798	-0.000000	0.000000	0.000000	NaN	0.000000	NaN	0.000000	0.000000	0.000000
0.154846	-0.000000	0.000000	0.000000	NaN	0.000000	NaN	0.000000	0.000000	0.000000
0.156331	-0.000000	0.000000	0.000000	NaN	0.000000	NaN	0.000000	0.000000	0.000000
0.156979	-0.000000	0.000000	0.000000	NaN	0.000000	NaN	0.000000	0.000000	0.000000
0.159027	-0.000000	0.000000	0.000000	NaN	0.000000	NaN	0.000000	0.000000	0.000000
0.160511	-0.000000	0.000000	0.000000	NaN	0.000000	NaN	0.000000	0.000000	0.000000
0.161159	-0.000000	0.000000	0.000000	NaN	0.000000	NaN	0.000000	0.000000	0.000000
0.163207	-0.000000	0.000000	0.000000	NaN	0.000000	NaN	0.000000	0.000000	0.000000
0.164691	-0.000000	0.000000	0.000000	NaN	0.000000	NaN	0.000000	0.000000	0.000000
0.165340	-0.000000	0.000000	0.000000	NaN	0.000000	NaN	0.000000	0.000000	0.000000
0.167388	-0.000000	0.000000	0.000000	NaN	0.000000	NaN	0.000000	0.000000	0.000000
0.168872	-0.000000	0.000000	0.000000	NaN	0.000000	NaN	0.000000	0.000000	0.000000
0.169520	-0.000000	0.000000	0.000000	NaN	0.000000	NaN	0.000000	0.000000	0.000000
0.171568	-0.000000	0.000000	0.000000	NaN	0.000000	NaN	0.000000	0.000000	0.000000
0.173052	-0.000000	0.000000	0.000000	NaN	0.000000	NaN	0.000000	0.000000	0.000000
0.173700	-0.000000	0.000000	0.000000	NaN	0.000000	NaN	0.000000	0.000000	0.000000
0.175748	-0.000000	0.000000	0.000000	NaN	0.000000	NaN	0.000000	0.000000	0.000000
0.177233	-0.000000	0.000000	0.000000	NaN	0.000000	NaN	0.000000	0.000000	0.000000
0.177881	-0.000000	0.000000	0.000000	NaN	0.000000	NaN	0.000000	0.000000	0.000000
0.179929	-0.000000	0.000000	0.000000	NaN	0.000000	NaN	0.000000	0.000000	0.000000
0.181413	-0.000000	0.000000	0.000000	NaN	0.000000	NaN	0.000000	0.000000	0.000000
0.182061	-0.000000	0.000000	0.000000	NaN	0.000000	NaN	0.000000	0.000000	0.000000
0.184109	-0.000000	0.000000	0.000000	NaN	0.000000	NaN	0.000000	0.000000	0.000000
0.185594	-0.000000	0.000000	0.000000	NaN	0.000000	NaN	0.000000	0.000000	0.000000
0.186242	-0.000000	0.000000	0.000000	NaN	0.000000	NaN	0.000000	0.000000	0.000000
0.188290	-0.000000	0.000000	0.000000	NaN	0.000000	NaN	0.000000	0.000000	0.000000
0.189774	-0.000000	0.000000	0.000000	NaN	0.000000	NaN	0.000000	0.000000	0.000000
0.190422	-0.000000	0.000000	0.000000	NaN	0.000000	NaN	0.000000	0.000000	0.000000
0.192470	-0.000000	0.000000	0.000000	NaN	0.000000	NaN	0.000000	0.000000	0.000000
0.193954	-0.000000	0.000000	0.000000	NaN	0.000000	NaN	0.000000	0.000000	0.000000
0.194603	-0.000000	0.000000	-0.000000	NaN	0.000000	NaN	0.000000	0.000000	0.000000
0.196651	-0.000000	0.000000	-0.000000	NaN	0.000000	NaN	0.000000	0.000000	0.000000
0.198135	-0.000000	0.000000	-0.000000	NaN	0.000000	NaN	0.000000	0.000000	0.000000
0.198783	-0.000000	0.000000	-0.000000	NaN	0.000000	NaN	0.000000	0.000000	0.000000
0.200831	-0.000000	0.000000	-0.000000	NaN	0.000000	NaN	0.000000	0.000000	0.000000
0.202315	-0.000000	0.000000	-0.000000	NaN	0.000000	NaN	0.000000	0.000000	0.000000
0.202964	-0.000000	0.000000	-0.000000	NaN	0.000000	NaN	0.000000	0.000000	0.000000
0.205012	-0.000000	0.000000	-0.000000	NaN	0.000000	NaN	0.000000	0.000000	0.000000
0.206496	-0.000000	0.000000	-0.000000	NaN	0.000000	NaN	0.000000	0.000000	0.000000
0.207144	-0.000000	0.000000	-0.000000	NaN	0.000000	NaN	0.000000	0.000000	0.000000
0.209192	-0.000000	0.000000	-0.000000	NaN	0.000000	NaN	0.000000	0.000000	0.000000
0.210676	-0.000000	0.000000	-0.000000	NaN	0.000000	NaN	0.000000	0.000000	0.000000
0.211324	-0.000000	0.000000	-0.000000	NaN	0.000000	NaN	0.000000	0.000000	0.000000
0.213372	-0.000000	0.000000	-0.000000	NaN	0.000000	NaN	0.000000	0.000000	0.000000
0.214857	-0.000000	0.000000	-0.000000	NaN	0.000000	NaN	0.000000	0.000000	0.000000
0.215505	-0.000000	0.000000	-0.000000	NaN	0.000000	NaN	0.000000	0.000000	0.000000
0.217553	-0.000000	0.000000	-0.000000	NaN	0.000000	NaN	0.000000	0.000000	0.000000
